<?xml version="1.0" standalone="no"?>
<!DOCTYPE svg PUBLIC "-//W3C//DTD SVG 1.1//EN" "http://www.w3.org/Graphics/SVG/1.1/DTD/svg11.dtd" >
<svg xmlns="http://www.w3.org/2000/svg">
<metadata></metadata>
<defs>
<font id="iconregular" horiz-adv-x="1014" >
<font-face units-per-em="2048" ascent="1638" descent="-410" />
<missing-glyph horiz-adv-x="500" />
<glyph horiz-adv-x="0" />
<glyph unicode="&#xd;" horiz-adv-x="508" />
<glyph unicode="!" horiz-adv-x="2400" d="M1 755v2l849 740l334 292q10 10 14 10l845 -733l356 -309v-2h-280l-854 742l-77 67l-829 -707l-119 -102h-239zM326 -209v962l858 725h3q772 -660 846 -726v-957l-2 -2h-545l-2 2v394l1 291q0 42 -43 67q-23 8 -41 8h-459q-57 0 -66 -69l1 -686v-6l-2 -3h-355l-192 -1z " />
<glyph unicode="&#x22;" horiz-adv-x="1345" d="M0 1121v13q0 264 198 471q206 195 468 195h13q264 0 471 -198q195 -206 195 -468v-13q0 -150 -69 -290q-109 -161 -156 -242q-38 -64 -73 -172q-36 -126 -36 -207v-439q0 -96 -159 -148q-83 -23 -166 -23h-25q-171 0 -277 78q-50 41 -50 113v419q0 209 -143 438 q-108 158 -130 197q-61 135 -61 276zM407 5q0 -35 37 -48q6 -3 20 -3h417q44 0 55 40l2 12q-10 48 -50 48h-431q-38 0 -48 -43zM407 -176q0 -35 40 -48h450q23 0 38 33l3 15q0 36 -42 49h-441q-34 0 -46 -39zM407 183q10 -48 50 -48h431q38 0 48 43l2 6q0 34 -37 48 q-6 2 -20 2h-417q-44 0 -55 -39zM598 426q0 -53 52 -74l19 -3h7q50 0 70 59l1 18v476q0 52 -52 73l-19 3h-7q-50 0 -70 -59l-1 -17v-476z" />
<glyph unicode="#" horiz-adv-x="2000" d="M0 581v249q0 67 56 118q45 39 114 39h127l8 23q-119 116 -119 127q-22 39 -22 81q0 78 77 142q160 163 168 163q40 24 86 24q76 0 140 -74l67 -67l16 6v131q0 86 83 137q36 20 71 20h249q87 0 139 -85q18 -35 18 -76v-122l28 -11q116 119 126 119q38 22 83 22 q78 0 146 -81q159 -156 159 -165q23 -40 23 -81v-3q0 -78 -75 -141q-66 -66 -66 -68q11 -24 11 -29h125q96 0 147 -92q14 -32 14 -65v-249q0 -76 -75 -130q-39 -24 -82 -24h-133q-4 -1 -7 -14q117 -113 119 -126q22 -37 22 -80v-4q0 -76 -77 -140q-159 -163 -168 -163 q-39 -24 -86 -24q-77 0 -139 75l-67 67l-28 -11v-137q0 -96 -92 -147q-32 -14 -65 -14h-247q-84 0 -137 83q-19 37 -19 74v145l-16 7q-115 -120 -136 -126q-35 -16 -74 -16q-75 0 -134 70q-169 167 -169 173q-25 44 -25 88q0 77 78 142l63 65q-8 21 -10 21h-140 q-62 0 -115 55q-40 48 -40 99zM561 706q0 -197 156 -339q127 -106 283 -106h5q164 0 299 123q63 67 80 106q56 102 56 209v12q0 165 -123 299q-81 75 -147 99q-83 33 -160 33h-19q-153 0 -287 -113q-143 -138 -143 -323zM795 701q0 104 94 169q49 30 101 30h12q88 0 153 -79 q41 -54 41 -122q0 -94 -80 -159q-56 -39 -114 -39h-10q-102 0 -168 96q-29 50 -29 104z" />
<glyph unicode="$" horiz-adv-x="2065" d="M1 7v10q0 98 100 183q77 79 200 187l581 531v1q-3 14 -70 78l-479 485q-13 15 -16 15q-13 -7 -30 -7h-9q-41 0 -85 30l-87 84l173 173h1q105 -97 105 -106q12 -21 12 -51q-2 -33 -7 -48l568 -571h12l123 134l48 58l1 3q-51 110 -51 182v19q0 147 197 313q124 90 259 90 h11q60 0 113 -18v-1q-257 -255 -257 -259q-9 -16 -9 -32v-4q0 -33 48 -72q93 -97 100 -97q16 -5 28 -6q35 0 72 44l235 230q12 -15 30 -91q7 -39 7 -71v-15q0 -167 -136 -305l-27 -24q-125 -111 -253 -111h-2q-78 0 -177 42h-1q-27 -21 -130 -131l-49 -55l108 -109 q62 62 82 62l17 2q40 0 76 -46l613 -622q15 -25 15 -45q0 -41 -41 -72q-182 -174 -186 -175q-19 -12 -36 -12h-11q-34 0 -73 48q-561 564 -610 616q-12 20 -12 42q0 34 33 65l43 50v1l-99 99q-250 -303 -604 -762q-127 -133 -139 -133q-51 -32 -104 -32h-17q-76 0 -141 60 q-63 66 -63 146zM195 67q0 -46 52 -65l15 -1q39 0 59 39q7 14 7 28q0 46 -51 64l-16 2q-45 0 -64 -50zM1210 530q0 -14 33 -43l541 -568q11 -5 17 -5q27 0 32 33q0 16 -30 42l-542 569q-9 7 -16 7h-7q-28 -6 -28 -28v-7zM1326 647q0 -14 37 -49l538 -564l15 -4q32 6 32 30v5 q0 14 -32 44q-525 552 -541 567q-10 5 -18 6q-26 0 -31 -33v-2z" />
<glyph unicode="%" horiz-adv-x="2000" d="M-3 10v1460q0 102 93 174q56 39 133 39h1001q50 0 69 -47q12 -31 12 -61q0 -70 -86 -111h-936q-42 0 -64 -48q-4 -12 -4 -27v-1297q0 -53 50 -72q11 -4 19 -4h1310q43 0 65 48q4 13 4 22v944q0 36 41 71q29 20 69 20q60 -12 88 -40q21 -18 21 -54v-995q0 -104 -58 -163 q-47 -46 -78 -54q-33 -17 -104 -17h-1407q-87 0 -134 32q-64 37 -94 118q-10 32 -10 62zM730 535l32 124h1q4 -3 111 -103l-143 -22zM813 732q94 242 98 245q8 6 496 490l124 122h1l273 -260q-571 -554 -620 -600l-251 -131zM1595 1649v1q120 127 135 140q17 10 32 10h5 q28 0 61 -41q158 -163 160 -169q8 -15 8 -30q0 -28 -43 -63q-96 -99 -99 -99h-1q-217 209 -258 251z" />
<glyph unicode="&#x26;" horiz-adv-x="2000" d="M1 -23v879l2 2h2058l2 -2v-856q0 -126 -68 -200q-25 -30 -54 -50q-73 -49 -163 -49h-1492q-156 0 -247 139q-38 69 -38 137zM1 955v472q0 125 107 217q81 59 169 59h1511q123 0 216 -108q28 -39 42 -75q17 -46 17 -118v-447l-2 -2h-2058zM189 1138h1685v377h-1685v-377z M191 -4q0 -77 77 -107q18 -4 31 -4h255q63 0 98 63q9 21 9 40v93q0 54 -57 91q-25 12 -60 12h-235q-83 0 -112 -72q-6 -18 -6 -39v-77zM191 468q0 -74 70 -104q16 -7 40 -7h253q69 0 102 72q5 19 5 31v94q0 51 -53 87q-24 16 -64 16h-235q-83 0 -112 -73q-6 -18 -6 -39v-77z M823 8q0 -83 61 -112q23 -11 47 -11h226q67 0 100 67q9 21 9 53v59q0 84 -71 113q-19 7 -48 7h-206q-81 0 -110 -69q-8 -16 -8 -55v-52zM823 480q0 -83 61 -112q23 -11 47 -11h226q67 0 100 67q9 21 9 53v59q0 84 -71 114q-19 7 -48 7h-206q-81 0 -110 -70q-8 -15 -8 -55 v-52zM1451 -12q0 -70 54 -96q16 -7 36 -7h223q71 0 103 69q7 19 7 41v81q0 68 -69 101q-21 7 -49 7h-208q-73 0 -92 -67q-5 -18 -5 -33v-96zM1451 460q0 -69 54 -96q16 -7 36 -7h223q73 0 103 70q7 17 7 40v82q0 67 -69 101q-21 7 -49 7h-205q-66 0 -89 -50q-11 -28 -11 -51 v-96z" />
<glyph unicode="'" horiz-adv-x="1860" d="M0 991v15q0 220 142 416q26 36 87 95q50 45 88 69q180 115 381 115h12q252 0 459 -174q82 -78 101 -111q138 -188 138 -421q0 -198 -107 -373q526 -525 537 -538q25 -34 25 -71v-9q0 -58 -68 -115q-72 -74 -79 -74q-29 -19 -65 -19q-62 0 -113 61l-512 513 q-152 -77 -323 -77q-259 0 -466 177q-69 65 -88 93q-149 196 -149 428zM207 996q0 -207 158 -363q90 -76 153 -96q90 -37 186 -37q199 0 353 146q144 154 144 351q0 208 -159 365q-42 36 -66 50q-124 82 -271 82h-4q-194 0 -345 -143q-58 -61 -81 -103q-68 -119 -68 -248v-4 z" />
<glyph unicode="(" horiz-adv-x="2500" d="M0 -10q0 59 101 224l543 941q5 7 276 478q71 119 123 119h5q64 0 160 -182l370 -636q464 -799 493 -853q30 -58 30 -98q0 -82 -170 -82l-1520 3h-219q-147 0 -180 44q-12 14 -12 37v5zM907 248q0 -55 52 -96q34 -22 68 -22q69 0 110 67q13 28 13 56q0 71 -71 110 q-26 11 -52 11q-72 0 -111 -73q-9 -26 -9 -42v-11zM907 588q0 -60 63 -101q30 -14 55 -14h6q66 0 106 66q13 27 13 53v492q0 69 -70 109q-26 11 -48 11h-10q-55 0 -96 -55q-19 -32 -19 -62v-499z" />
<glyph unicode=")" horiz-adv-x="1800" d="M-1 636v16q0 261 174 491q26 35 97 103q91 80 166 121t164 72q76 22 85 22v-292q-4 -3 -46 -20q-61 -27 -126 -76q-60 -49 -99 -100q-115 -151 -115 -331q0 -197 141 -360q69 -70 99 -87q163 -113 361 -113q220 0 398 142q52 47 78 79q123 156 123 340q0 202 -145 366 q-64 65 -111 95q-62 38 -130 64v293h1q201 -45 369 -176q95 -80 143 -144q68 -91 98 -160q75 -163 75 -329v-16q0 -274 -188 -509q-79 -88 -123 -121q-262 -206 -589 -206q-307 0 -562 185q-45 32 -115 102l-27 31q-196 238 -196 518zM770 920v728q0 50 58 74q13 4 26 4h90 q53 0 79 -53q5 -11 5 -25v-728q0 -41 -46 -68q-20 -8 -39 -8h-88q-57 0 -82 57z" />
<glyph unicode="*" horiz-adv-x="1600" d="M0 802v2h1600v-2l-800 -810q-18 14 -800 810z" />
<glyph unicode="+" horiz-adv-x="2500" d="M0 -123l1251 1413l1250 -1418l-4 -4h-2489z" />
<glyph unicode="," horiz-adv-x="2300" d="M-4 -94v288l8 8h2288l8 -8v-288l-8 -8h-2288zM-4 506v288l8 8h2288l8 -8v-288l-8 -8h-2288zM0 1102v288l8 8h2288l8 -8v-288l-8 -8h-2288z" />
<glyph unicode="-" horiz-adv-x="2000" d="M0 785v36q0 468 425 802q273 177 554 177h36q430 0 747 -350q240 -291 240 -649q0 -481 -401 -802q-272 -201 -606 -201q-453 0 -775 374q-220 281 -220 613zM201 801q0 -426 389 -688q203 -110 382 -110h51q365 0 633 338q141 218 141 436v51q0 300 -251 555 q-239 216 -551 216q-393 0 -661 -354q-133 -217 -133 -444zM527 746v4h315v621l8 8h302l8 -8v-621h311v-4l-472 -421z" />
<glyph unicode="." horiz-adv-x="1600" d="M0 725q920 1099 939 1126h4l-388 -864h938l5 -3q-17 -13 -564 -589l-571 -592v3l474 917h-832z" />
<glyph unicode="/" horiz-adv-x="1048" d="M0 595v3q91 0 265 -77l100 -54v1327l6 6h296l6 -6v-1330q205 134 362 134v-3q-186 -209 -240 -323q-137 -228 -274 -673h-7q-109 367 -231 591q-63 125 -204 310z" />
<glyph unicode="0" horiz-adv-x="2144" d="M0 803v162l2 2h469q3 0 19 76l185 757h143v-1l-55 -227l311 -172l305 170l-56 229l1 1h141q2 0 29 -116l174 -717h471l2 -2v-162l-2 -3h-430l243 -997l-1 -1h-140q-4 0 -25 96l-12 44l-704 341l-704 -342l-34 -139h-140l-2 2l242 996h-430zM413 132h1l483 234v3l-382 185 zM551 704q491 -240 521 -253l517 253l-23 96h-991zM616 967h909q-10 47 -14 47l-438 242l-447 -249zM667 1175h1l274 152v2l-210 116h-1zM1203 1327l270 -148v1l-64 262l-206 -113v-2zM1244 366l485 -234l-103 421l-382 -184v-3z" />
<glyph unicode="1" horiz-adv-x="2700" d="M0 725v2l529 596l529 -596v-2h-428q-4 0 -13 -70q-3 -37 -3 -63q0 -209 141 -391q64 -76 118 -116q219 -165 493 -165q275 0 495 168q86 71 128 131q21 29 46 69v-2q-146 -304 -490 -432q-158 -55 -325 -55q-349 0 -618 227q-93 90 -105 113q-54 70 -88 141 q-69 153 -69 303v14q0 64 12 128h-352zM656 1310v2q143 295 462 422q168 66 342 66h20q281 0 527 -162q50 -34 113 -93q73 -75 98 -116q135 -194 135 -419q0 -60 -13 -135h350l2 -2l-529 -596h-1l-529 597l1 1h429q14 67 14 122v18q0 206 -146 391q-67 77 -122 117 q-217 156 -481 156h-3q-290 0 -515 -185q-71 -63 -100 -104q-26 -34 -54 -80z" />
<glyph unicode="2" horiz-adv-x="2000" d="M0 -214v1700q0 54 61 80q14 5 42 5h219l1 -1h1q-6 -22 -6 -50v-682q0 -111 105 -164q38 -16 72 -16h873q81 0 140 70q37 43 37 119v666q0 34 -6 57l1 1h94l366 -323v-1449q0 -69 -59 -92q-16 -6 -45 -6h-1793q-72 0 -96 54q-7 15 -7 31zM408 908v586q0 117 113 156 q21 7 44 7h733q74 0 127 -64q29 -41 29 -84v-617q0 -57 -48 -104q-49 -44 -111 -44h-727q-81 0 -133 69q-27 36 -27 95zM1000 874q0 -29 32 -40q5 -2 16 -2h178q36 0 45 37l1 17v542q0 41 -26 51q-8 4 -18 4h-186q-30 0 -41 -35l-1 -9v-565z" />
<glyph unicode="3" horiz-adv-x="2200" d="M0 -106v731q0 13 4 22l-1 1v1l295 679q14 38 49 56q18 11 58 11h328v-1q-89 -81 -89 -154v-2q0 -14 7 -37h-211l-195 -483h438l2 -2v-143q0 -36 40 -47l13 -1h676q36 0 50 31l3 17v143l2 2h487l-244 483h-171l-1 1h-1q10 23 10 44q0 73 -89 148v1h336q69 0 95 -43 q7 -7 19 -41l283 -652q8 -15 8 -34v-731q0 -58 -62 -88q-16 -6 -32 -6h-2013q-50 0 -82 49q-12 22 -12 45zM734 1220v9q0 42 53 87q254 256 258 256q25 16 50 16h11q40 0 75 -39q263 -254 270 -262q16 -25 16 -52v-1q0 -58 -62 -84q-15 -5 -32 -5q-45 0 -82 42l-92 89v-567 q0 -47 -51 -77q-23 -11 -47 -11q-61 0 -93 58q-6 19 -6 40v548q-120 -121 -123 -121q-25 -15 -52 -15q-60 0 -89 62q-4 16 -4 27z" />
<glyph unicode="4" horiz-adv-x="2000" d="M0 243v918q0 50 59 81q18 5 40 5h1804q66 0 91 -59q7 -14 7 -44v-889q0 -75 -69 -98l-21 -2h-318l-2 2v498h-1182v-498l-2 -2h-316q-65 0 -89 69zM182 973q0 -51 51 -81q19 -9 37 -9h5q56 0 83 60q6 18 6 32q0 54 -57 83q-16 6 -36 6q-58 0 -85 -63q-3 -11 -4 -28z M500 -207v769l2 2h996l2 -2v-776q0 -50 -59 -81q-18 -5 -41 -5h-797q-72 0 -97 57q-6 18 -6 36zM500 1340v268q0 68 69 91l19 2h824q58 0 85 -64q3 -14 3 -24v-273l-2 -3h-996zM683 19v-90h635v88l-2 2h-633zM683 110h635v89l-2 2h-633v-91zM683 292h635v91h-635v-91z" />
<glyph unicode="5" horiz-adv-x="1700" d="M0 69v1470q19 70 72 70h193l7 -8v-84q0 -115 134 -155h17q107 0 148 118q7 16 7 59v62l7 8h527l6 -8v-47q0 -136 93 -178q25 -14 62 -14q111 0 152 129l3 63v47l7 8h193q63 0 72 -95v-1419q0 -103 -96 -103h-1511q-72 0 -90 59zM155 216q7 -42 34 -42h1318q35 8 35 38 v933q-5 38 -35 38h-1318q-31 0 -34 -46v-921zM348 1523v210q14 69 68 69h14q72 -14 72 -72v-203q-16 -73 -72 -73h-10q-72 14 -72 69zM520 739q0 71 86 82q50 0 158 -124l34 -31q299 307 314 307l20 3h17q57 0 69 -72v-7q0 -43 -103 -131q-278 -290 -303 -296l-27 -3 q-44 0 -111 82q-151 142 -151 166zM1194 1544v172q10 86 72 86h14q62 0 72 -86v-176q-10 -86 -72 -86h-14q-63 0 -72 90z" />
<glyph unicode="6" horiz-adv-x="2100" d="M0 189q144 691 152 698h4l680 -222v-4l-336 -194q41 -122 136 -219q181 -170 440 -170q379 0 632 341q100 176 100 294h8v-28q0 -331 -324 -599q-249 -187 -544 -187q-389 0 -608 317q-31 48 -60 124h-4l-272 -155zM252 963v23q0 395 372 663q233 151 484 151h20 q414 0 632 -365l28 -76l280 155v-4l-144 -694h-4l-688 218v4l336 198q-26 99 -140 223q-186 162 -412 162h-44q-247 0 -480 -190q-232 -226 -232 -460v-8h-8z" />
<glyph unicode="7" horiz-adv-x="1600" d="M-1 1103v11q0 251 192 460q96 93 152 121q177 105 366 105h18q263 0 492 -194q229 -220 229 -500q0 -269 -517 -940q-124 -156 -221 -267q-221 269 -389 519q-322 479 -322 685zM506 1364q0 -117 107 -186q52 -30 104 -30h12q80 0 147 62q65 69 65 154q0 110 -99 182 q-56 35 -117 35h-4q-108 0 -179 -96q-36 -56 -36 -120v-1z" />
<glyph unicode="8" horiz-adv-x="1400" d="M0 1057v354q0 43 58 50h167v220q10 117 91 117h17q82 0 92 -117v-220h557v250q21 87 88 87h16q81 0 92 -104v-233h167q62 0 62 -75v-312q-42 -188 -179 -333q-30 -29 -129 -46q-67 -40 -108 -175q-29 -123 -29 -212v-146q0 -50 -84 -67h-87v-345l-8 -8h-159l-8 8v337 l-8 8h-92q-70 0 -79 105v179q0 264 -216 345q-153 108 -221 333zM520 562q15 -29 42 -29h283q35 0 42 45q-8 29 -29 38h-300q-38 -6 -38 -38v-16zM529 224q0 -26 29 -41h291q29 15 29 41q0 27 -29 42h-291q-29 -15 -29 -42zM529 399q5 -41 41 -41h267q41 5 41 41 q-5 42 -37 42h-275q-32 0 -37 -42z" />
<glyph unicode="9" d="M77 1018q0 116 56.5 220.5t144 162.5t169.5 58q243 0 366.5 -162.5t123.5 -372.5q0 -320 -209 -634.5t-515 -314.5v48q177 12 326.5 179.5t233.5 467.5q-95 -93 -266 -93q-108 0 -211 57t-161 162.5t-58 221.5zM232 1077q0 -203 100 -333.5t215 -130.5q91 0 163.5 101.5 t72.5 250.5q0 153 -96 305.5t-231 152.5q-101 0 -162.5 -98.5t-61.5 -247.5z" />
<glyph unicode=":" horiz-adv-x="557" d="M129 136q0 15 16 31l82 84q15 14 29 14q13 0 31 -16l80 -86q12 -16 12 -29q0 -15 -14 -31l-80 -88q-20 -20 -29 -20q-16 0 -29 14l-88 101q-10 13 -10 26zM129 829q0 15 16 31l82 84q15 14 29 14q13 0 31 -16l80 -86q12 -16 12 -29q0 -15 -14 -31l-80 -88 q-20 -20 -29 -20q-16 0 -29 14l-88 101q-10 13 -10 26z" />
<glyph unicode=";" horiz-adv-x="557" d="M119 91v42l119 125q44 0 88.5 -65.5t44.5 -151.5q0 -109 -71 -226.5t-139 -117.5v43q73 43 87 190q0 119 -129 161zM129 828q0 15 16 31l82 84q15 14 29 14q13 0 31 -16l80 -86q12 -16 12 -29q0 -15 -14 -31l-80 -88q-20 -20 -29 -20q-16 0 -29 14l-88 101q-10 13 -10 26 z" />
<glyph unicode="&#x3c;" d="M87 674v83l840 484v-167l-625 -359l625 -355v-167z" />
<glyph unicode="=" d="M87 491v140h840v-140h-840zM87 803v140h840v-140h-840z" />
<glyph unicode="&#x3e;" d="M87 193v167l625 355l-625 359v167l840 -484v-83z" />
<glyph unicode="?" horiz-adv-x="748" d="M132 1266v64q128 104 242 104q132 0 212 -68t80 -182q0 -69 -32.5 -140t-124.5 -186q-90 -113 -141.5 -187.5t-51.5 -142.5q0 -63 35 -189h-47q-50 138 -50 211q0 109 116.5 312t116.5 309q0 82 -47 129t-130 47q-84 0 -178 -81zM207 136q0 15 16 31l82 84q15 14 29 14 q13 0 31 -16l80 -86q12 -16 12 -29q0 -15 -14 -31l-80 -88q-20 -20 -29 -20q-16 0 -29 14l-88 101q-10 13 -10 26z" />
<glyph unicode="@" horiz-adv-x="2019" d="M100 508q0 242 124 464.5t345.5 342t456.5 119.5q362 0 609 -230t247 -566q0 -270 -176 -439q-175 -168 -346 -170q-63 1 -100.5 18t-61.5 54q-29 -37 -82 -64.5t-133 -27.5q-144 0 -256.5 100.5t-112.5 233.5q1 87 53 166.5t132.5 115t173.5 49.5q67 16 110 42.5 t43 74.5q-2 69 -41 125t-129 56q-72 0 -121.5 -59t-50.5 -125h-45v159q0 20 72 40q73 20 178 20q109 -2 193.5 -64.5t84.5 -157.5v-589q0 -117 94 -117q185 35 267 191.5t82 382.5q-20 335 -232 540q-197 188 -480 188q-205 0 -392.5 -137.5t-269.5 -355.5 q-67 -178 -67 -361q0 -313 129.5 -511.5t305 -290.5t318.5 -92q274 0 575 208v-75q-263 -184 -571 -184q-240 0 -461 122.5t-343 342t-122 461.5zM753 343q0 -107 64 -194t183 -87q97 5 126 167v476q-54 -63 -154 -83q-83 -10 -151 -80t-68 -199z" />
<glyph unicode="A" horiz-adv-x="1540" />
<glyph unicode="B" horiz-adv-x="1219" />
<glyph unicode="C" horiz-adv-x="1399" />
<glyph unicode="D" horiz-adv-x="1518" />
<glyph unicode="E" horiz-adv-x="1151" />
<glyph unicode="F" horiz-adv-x="1079" />
<glyph unicode="G" horiz-adv-x="1479" />
<glyph unicode="H" horiz-adv-x="1579" />
<glyph unicode="I" horiz-adv-x="657" />
<glyph unicode="J" horiz-adv-x="657" />
<glyph unicode="K" horiz-adv-x="1382" />
<glyph unicode="L" horiz-adv-x="1128" />
<glyph unicode="M" horiz-adv-x="1798" />
<glyph unicode="N" horiz-adv-x="1554" />
<glyph unicode="O" horiz-adv-x="1614" />
<glyph unicode="P" horiz-adv-x="1120" />
<glyph unicode="Q" horiz-adv-x="1614" />
<glyph unicode="R" horiz-adv-x="1283" />
<glyph unicode="S" horiz-adv-x="1085" />
<glyph unicode="T" horiz-adv-x="1350" />
<glyph unicode="U" horiz-adv-x="1501" />
<glyph unicode="V" horiz-adv-x="1456" />
<glyph unicode="W" horiz-adv-x="2030" />
<glyph unicode="X" horiz-adv-x="1350" />
<glyph unicode="Y" horiz-adv-x="1233" />
<glyph unicode="Z" horiz-adv-x="1124" />
<glyph unicode="[" horiz-adv-x="758" />
<glyph unicode="\" horiz-adv-x="569" />
<glyph unicode="]" horiz-adv-x="758" />
<glyph unicode="^" />
<glyph unicode="_" horiz-adv-x="1024" d="M0 -100h1024v-60h-1024v60z" />
<glyph unicode="`" horiz-adv-x="1024" d="M212 1363q0 31 20.5 51t53.5 20q20 0 40.5 -12t55.5 -47l291 -296h-69l-330 202q-31 20 -46.5 40t-15.5 42z" />
<glyph unicode="a" horiz-adv-x="922" />
<glyph unicode="b" horiz-adv-x="995" />
<glyph unicode="c" horiz-adv-x="905" />
<glyph unicode="d" horiz-adv-x="1040" />
<glyph unicode="e" horiz-adv-x="909" />
<glyph unicode="f" horiz-adv-x="559" />
<glyph unicode="g" horiz-adv-x="899" />
<glyph unicode="h" horiz-adv-x="1104" />
<glyph unicode="i" horiz-adv-x="514" />
<glyph unicode="j" horiz-adv-x="510" />
<glyph unicode="k" horiz-adv-x="1026" />
<glyph unicode="l" horiz-adv-x="522" />
<glyph unicode="m" horiz-adv-x="1569" />
<glyph unicode="n" horiz-adv-x="1108" />
<glyph unicode="o" horiz-adv-x="1010" />
<glyph unicode="p" horiz-adv-x="1010" />
<glyph unicode="q" horiz-adv-x="1024" />
<glyph unicode="r" horiz-adv-x="692" />
<glyph unicode="s" horiz-adv-x="702" />
<glyph unicode="t" horiz-adv-x="674" />
<glyph unicode="u" horiz-adv-x="1059" />
<glyph unicode="v" horiz-adv-x="993" />
<glyph unicode="w" horiz-adv-x="1415" />
<glyph unicode="x" horiz-adv-x="1010" />
<glyph unicode="y" horiz-adv-x="868" />
<glyph unicode="z" horiz-adv-x="727" />
<glyph unicode="{" d="M240 638v60q172 5 223 71t51 133v468q0 74 77 141.5t185 67.5h108v-50h-90q-61 0 -107 -33.5t-47 -91.5v-500q0 -83 -60.5 -158.5t-142.5 -76.5v-2q82 -1 143 -76t61 -158l-1 -500q1 -58 47 -91.5t107 -33.5h90v-50h-108q-108 0 -184.5 67.5t-77.5 141.5v468 q0 66 -51 132t-223 71z" />
<glyph unicode="|" d="M427 -418v1995h160v-1995h-160z" />
<glyph unicode="}" d="M130 -192h90q61 0 107 33.5t47 91.5l-1 500q0 83 61 158t144 76v2q-83 1 -143.5 76.5t-60.5 158.5v500q-1 58 -47 91.5t-107 33.5h-90v50h108q108 0 185 -67.5t77 -141.5v-468q0 -67 51 -133t223 -71v-60q-172 -5 -223 -71t-51 -132v-468q-1 -74 -77.5 -141.5 t-184.5 -67.5h-108v50z" />
<glyph unicode="~" d="M94 556v156q64 73 123 99t114 26q64 0 181.5 -49.5t172.5 -49.5q52 0 108.5 28t129.5 112v-156q-63 -72 -122 -97.5t-116 -25.5q-60 0 -177.5 48.5t-176.5 48.5q-51 0 -107.5 -28t-129.5 -112z" />
<glyph unicode="&#xa1;" horiz-adv-x="672" />
<glyph unicode="&#xa2;" horiz-adv-x="1139" />
<glyph unicode="&#xa3;" d="M76 673v60h135q-58 143 -58 253q0 226 123.5 347t306.5 121h4q75 0 185.5 -14t110.5 -34v-161h-58q-5 61 -77 102q-72 31 -160 31h-2q-100 0 -190 -101q-84 -93 -84 -241q0 -15 1 -30q0 -135 53 -273h360v-60h-334q14 -30 31 -60q35 -63 35 -138q0 -161 -162 -375h402 q130 0 189 132l49 -1l-103 -231h-719l1 50q187 238 187 418q0 77 -34 143q-17 32 -31 62h-161z" />
<glyph unicode="&#xa4;" d="M122 413l118 117q-32 46 -48 103q-12 42 -12 84q0 44 13 87q16 55 47 99l-118 118l80 81l118 -118q44 30 99 46q44 14 89 14q41 0 83 -12q57 -17 102 -48l118 118l80 -81l-117 -117q31 -46 48 -102q12 -42 12 -85q0 -42 -12 -85q-17 -56 -48 -102l117 -117l-80 -81 l-118 118q-45 -32 -101 -48q-42 -12 -85 -12q-42 0 -85 12q-57 16 -102 48l-118 -118zM284 716q0 -28 9 -56q16 -59 57 -100q41 -40 99 -57q29 -8 58 -8t58 8q58 17 99 57q40 41 57 99q9 29 9 58t-9 58q-17 58 -57 99q-41 40 -100 57q-29 8 -58 8t-58 -9q-58 -17 -98 -56 q-39 -40 -56 -98q-10 -30 -10 -60z" />
<glyph unicode="&#xa5;" horiz-adv-x="1262" d="M8 1176q0 19 10.5 27.5t32.5 8.5q27 0 123 -8t164 -8h57h31q33 0 41 -6.5t8 -26.5q0 -8 -15 -14t-38 -6q-6 0 -18.5 2t-18.5 2q-24 0 -37.5 -9.5t-13.5 -25.5q0 -18 16.5 -52t46.5 -77l158 -221q13 -19 33 -53q41 -70 71 -70q9 0 16.5 5t14.5 15l277 396q8 12 13 26.5 t5 24.5q0 18 -10 27t-37 14q-15 2 -41 4q-47 3 -47 25q0 15 8 22.5t25 7.5q3 0 15 -1q56 -7 108 -7h139q30 0 65 1t37 1q11 0 18.5 -4.5t8.5 -11.5q0 -28 -38 -34q-18 -3 -27 -5q-63 -15 -147 -117q-7 -9 -12 -15l-169 -206h323q15 0 24 -6t9 -17q0 -15 -6 -20.5t-23 -5.5 h-366q-46 -57 -96.5 -112.5t-52.5 -59.5h511q18 0 25.5 -5.5t7.5 -17.5q0 -14 -7 -21t-22 -7h-530q0 -11 -1 -30.5t-1 -29.5l2 -215q0 -114 5.5 -150t20.5 -44q30 -17 107.5 -19t77.5 -31q0 -12 -10 -20t-25 -8q-2 0 -35.5 4t-64.5 4q-91 0 -208.5 -4t-142.5 -4q-31 0 -40 4 t-9 16t8 18.5t37 12.5q9 2 25 5q74 16 92 32q17 13 24 47t7 102l-2 242q0 19 -1.5 35t-4.5 32l-484 1q-14 0 -21 6.5t-7 19.5t6.5 19t21.5 6h467l-121 172h-344q-17 0 -23.5 5.5t-6.5 18.5q0 14 6 19.5t22 5.5h307q-43 57 -108 155q-131 197 -227 197q-7 0 -13 5.5t-6 11.5z " />
<glyph unicode="&#xa6;" d="M427 371h160v-789h-160v789zM427 789v789h160v-789h-160z" />
<glyph unicode="&#xa7;" d="M170 1130q0 148 89 237q82 79 216 86q8 1 17 1h3q66 0 163 -16.5t97 -41.5v-194h-51q-5 81 -80 132q-70 47 -149 51h-15q-78 0 -125 -44.5t-47 -117.5q0 -132 287 -269q149 -67 204.5 -143.5t55.5 -187.5q0 -171 -101 -282q-47 -39 -99 -64q108 -56 154 -118 q55 -77 55 -187q0 -171 -101 -283q-124 -102 -277 -105v1q-6 -1 -13 -1h-3q-66 0 -163 16.5t-97 41.5v194h51q5 -81 80 -132q68 -45 145 -50q113 6 185 69q72 64 72 165q0 125 -316 276q-123 64 -175.5 137t-52.5 177q0 148 89 237q67 65 170 82l-40 19q-123 64 -175.5 137 t-52.5 177zM297 571q0 -123 248 -250q56 16 97 53q73 65 73 166q0 5 -1 10h-2q-1 14 -4 27q-22 61 -113 127q-59 29 -126 29q-78 0 -125 -44.5t-47 -117.5z" />
<glyph unicode="&#xa8;" horiz-adv-x="1024" d="M209 1263q0 13 14 26l71 72q13 12 25 12q11 0 27 -14l69 -73q10 -14 10 -25q0 -13 -12 -27l-69 -75q-17 -17 -25 -17q-14 0 -25 12l-76 86q-9 12 -9 23zM574 1263q0 13 14 26l71 72q13 12 25 12q11 0 27 -13l69 -74q10 -14 10 -25q0 -13 -12 -26l-69 -76q-17 -17 -25 -17 q-14 0 -25 12l-76 87q-9 11 -9 22z" />
<glyph unicode="&#xa9;" horiz-adv-x="1674" d="M100 718q0 148 55.5 283t159.5 238q102 104 238.5 160.5t286.5 56.5q145 0 280 -56.5t239 -160.5q102 -101 158.5 -238t56.5 -283q0 -147 -56.5 -282t-162.5 -240q-105 -105 -239 -159.5t-283 -54.5q-146 0 -278 55.5t-238 160.5q-106 104 -161.5 237.5t-55.5 282.5z M160 718q0 -137 51 -259t148 -219q98 -96 219 -147t256 -51q137 0 259.5 50.5t219.5 145.5q97 98 149 221.5t52 258.5q0 134 -52 259.5t-145 219.5q-96 96 -220 147.5t-258 51.5q-137 0 -262 -51.5t-220 -147.5t-146 -219.5t-51 -259.5zM351 719q0 126 65.5 244t187.5 184.5 t254 66.5q38 0 75 -6.5t76 -20.5q5 -1 9 -1q19 0 26 30h42l72 -198h-44q-52 94 -131 124q-72 26 -147 26h-15q-86 -8 -166.5 -71t-121.5 -177q-33 -90 -33 -184q0 -25 2 -50q11 -121 69.5 -224t149.5 -152q72 -40 166 -42q124 0 194 56t70 126h53v-100q0 -46 -96.5 -86.5 t-242.5 -40.5q-142 0 -264 68t-186 185t-64 243z" />
<glyph unicode="&#xaa;" horiz-adv-x="648" />
<glyph unicode="&#xab;" horiz-adv-x="944" d="M174 479l342 303h14v-37l-205 -266l205 -266v-37h-14zM487 479l342 303h14v-37l-205 -266l205 -266v-37h-14z" />
<glyph unicode="&#xac;" d="M87 667v100h840v-491l-1 -1h-98v392h-741z" />
<glyph unicode="&#xad;" horiz-adv-x="2000" d="M0 785v36q0 468 425 802q273 177 554 177h36q430 0 747 -350q240 -291 240 -649q0 -481 -401 -802q-272 -201 -606 -201q-453 0 -775 374q-220 281 -220 613zM201 801q0 -426 389 -688q203 -110 382 -110h51q365 0 633 338q141 218 141 436v51q0 300 -251 555 q-239 216 -551 216q-393 0 -661 -354q-133 -217 -133 -444zM527 746v4h315v621l8 8h302l8 -8v-621h311v-4l-472 -421z" />
<glyph unicode="&#xae;" horiz-adv-x="1674" d="M100 718q0 148 55.5 283t159.5 238q102 104 238.5 160.5t286.5 56.5q145 0 280 -56.5t239 -160.5q102 -101 158.5 -238t56.5 -283q0 -147 -56.5 -282t-162.5 -240q-105 -105 -239 -159.5t-283 -54.5q-146 0 -278 55.5t-238 160.5q-106 104 -161.5 237.5t-55.5 282.5z M160 718q0 -137 51 -259t148 -219q98 -96 219 -147t256 -51q137 0 259.5 50.5t219.5 145.5q97 98 149 221.5t52 258.5q0 134 -52 259.5t-145 219.5q-96 96 -220 147.5t-258 51.5q-137 0 -262 -51.5t-220 -147.5t-146 -219.5t-51 -259.5zM524 269v50h43q37 0 37 121v538 q0 121 -37 121h-43v70h356q64 -1 125 -42q60 -41 92.5 -114t32.5 -152q0 -78 -32 -150.5t-114 -134.5l82 -116q100 -141 150 -141h34v-50h-346v50h45q30 0 30 22q0 29 -69 114l-75 102q-42 0 -84 42v-159q0 -121 36 -121h53v-50h-316zM751 725l3 -8q23 -56 56 -81 q29 -22 56 -22h6q31 4 61.5 38.5t46.5 97.5q13 50 13 103q0 13 -1 27q-4 67 -28 124.5t-56.5 76t-63.5 18.5h-93v-374z" />
<glyph unicode="&#xaf;" horiz-adv-x="670" />
<glyph unicode="&#xb0;" horiz-adv-x="674" d="M60 1164q0 116 81.5 197t197.5 81q115 0 196 -81.5t81 -196.5q0 -114 -82 -196t-197 -82q-117 0 -197 81t-80 197zM130 1163q0 -87 61 -147t148 -60t147 60t60 147t-60.5 148t-146.5 61t-147.5 -61t-61.5 -148z" />
<glyph unicode="&#xb1;" />
<glyph unicode="&#xb2;" />
<glyph unicode="&#xb3;" />
<glyph unicode="&#xb4;" horiz-adv-x="1024" d="M316 1078l291 297q35 35 55.5 47t40.5 12q33 0 53.5 -20t20.5 -51q0 -22 -15.5 -42t-46.5 -40l-330 -203h-69z" />
<glyph unicode="&#xb5;" horiz-adv-x="1180" />
<glyph unicode="&#xb6;" horiz-adv-x="1024" d="M93 1086q0 157 107.5 253t285.5 96h443v-70h-127v-1365h-82v1365h-166v-1365h-84v738q-174 8 -275.5 102.5t-101.5 245.5z" />
<glyph unicode="&#xb7;" horiz-adv-x="508" d="M129 709q0 15 16 31l82 84q15 14 29 14q13 0 31 -16l80 -86q12 -16 12 -29q0 -15 -14 -31l-80 -88q-20 -20 -29 -20q-16 0 -29 14l-88 101q-10 13 -10 26z" />
<glyph unicode="&#xb8;" horiz-adv-x="1024" d="M360 -290q85 -52 152 -52q66 0 94.5 21.5t28.5 66.5t-49 64q-40 16 -102 16q-16 0 -34 -2l48 176h63l-37 -104q32 4 62 5q86 0 134 -40.5t48 -113.5q0 -76 -58.5 -120.5t-160.5 -44.5q-109 0 -189 32v96z" />
<glyph unicode="&#xb9;" />
<glyph unicode="&#xba;" horiz-adv-x="718" />
<glyph unicode="&#xbb;" horiz-adv-x="944" d="M101 176v37l205 266l-205 266v37h14l342 -303l-342 -303h-14zM414 176v37l205 266l-205 266v37h14l342 -303l-342 -303h-14z" />
<glyph unicode="&#xbc;" horiz-adv-x="1708" />
<glyph unicode="&#xbd;" horiz-adv-x="1964" />
<glyph unicode="&#xbe;" horiz-adv-x="1708" />
<glyph unicode="&#xbf;" horiz-adv-x="748" />
<glyph unicode="&#xc0;" horiz-adv-x="1540" />
<glyph unicode="&#xc1;" horiz-adv-x="1540" />
<glyph unicode="&#xc2;" horiz-adv-x="1540" />
<glyph unicode="&#xc3;" horiz-adv-x="1540" />
<glyph unicode="&#xc4;" horiz-adv-x="1540" />
<glyph unicode="&#xc5;" horiz-adv-x="1540" />
<glyph unicode="&#xc6;" horiz-adv-x="2118" />
<glyph unicode="&#xc7;" horiz-adv-x="1399" />
<glyph unicode="&#xc8;" horiz-adv-x="1151" />
<glyph unicode="&#xc9;" horiz-adv-x="1151" />
<glyph unicode="&#xca;" horiz-adv-x="1151" />
<glyph unicode="&#xcb;" horiz-adv-x="1151" />
<glyph unicode="&#xcc;" horiz-adv-x="657" />
<glyph unicode="&#xcd;" horiz-adv-x="657" />
<glyph unicode="&#xce;" horiz-adv-x="657" />
<glyph unicode="&#xcf;" horiz-adv-x="657" />
<glyph unicode="&#xd0;" horiz-adv-x="1518" />
<glyph unicode="&#xd1;" horiz-adv-x="1554" />
<glyph unicode="&#xd2;" horiz-adv-x="1614" />
<glyph unicode="&#xd3;" horiz-adv-x="1614" />
<glyph unicode="&#xd4;" horiz-adv-x="1614" />
<glyph unicode="&#xd5;" horiz-adv-x="1614" />
<glyph unicode="&#xd6;" horiz-adv-x="1614" />
<glyph unicode="&#xd7;" d="M161 470l247 247l-247 248l99 98l247 -247l248 247l98 -99l-247 -247l247 -247l-99 -99l-247 247l-247 -247z" />
<glyph unicode="&#xd8;" horiz-adv-x="1614" />
<glyph unicode="&#xd9;" horiz-adv-x="1501" />
<glyph unicode="&#xda;" horiz-adv-x="1501" />
<glyph unicode="&#xdb;" horiz-adv-x="1501" />
<glyph unicode="&#xdc;" horiz-adv-x="1501" />
<glyph unicode="&#xdd;" horiz-adv-x="1233" />
<glyph unicode="&#xde;" horiz-adv-x="1120" />
<glyph unicode="&#xdf;" horiz-adv-x="1251" />
<glyph unicode="&#xe0;" horiz-adv-x="922" />
<glyph unicode="&#xe1;" horiz-adv-x="922" />
<glyph unicode="&#xe2;" horiz-adv-x="922" />
<glyph unicode="&#xe3;" horiz-adv-x="922" />
<glyph unicode="&#xe4;" horiz-adv-x="922" />
<glyph unicode="&#xe5;" horiz-adv-x="922" />
<glyph unicode="&#xe6;" horiz-adv-x="1454" />
<glyph unicode="&#xe7;" horiz-adv-x="905" />
<glyph unicode="&#xe8;" horiz-adv-x="909" />
<glyph unicode="&#xe9;" horiz-adv-x="909" />
<glyph unicode="&#xea;" horiz-adv-x="909" />
<glyph unicode="&#xeb;" horiz-adv-x="909" />
<glyph unicode="&#xec;" horiz-adv-x="514" />
<glyph unicode="&#xed;" horiz-adv-x="514" />
<glyph unicode="&#xee;" horiz-adv-x="514" />
<glyph unicode="&#xef;" horiz-adv-x="514" />
<glyph unicode="&#xf0;" horiz-adv-x="1139" />
<glyph unicode="&#xf1;" horiz-adv-x="1108" />
<glyph unicode="&#xf2;" horiz-adv-x="1010" />
<glyph unicode="&#xf3;" horiz-adv-x="1010" />
<glyph unicode="&#xf4;" horiz-adv-x="1010" />
<glyph unicode="&#xf5;" horiz-adv-x="1010" />
<glyph unicode="&#xf6;" horiz-adv-x="1010" />
<glyph unicode="&#xf7;" d="M87 647v140h839l1 -1v-139h-840zM382 377q0 15 16 31l82 84q15 14 29 14q13 0 31 -16l80 -86q12 -16 12 -29q0 -15 -14 -31l-80 -88q-20 -20 -29 -20q-16 0 -29 14l-88 101q-10 13 -10 26zM382 1070q0 15 16 31l82 84q15 14 29 14q13 0 31 -16l80 -86q12 -16 12 -29 q0 -15 -14 -31l-80 -88q-20 -20 -29 -20q-16 0 -29 14l-88 101q-10 13 -10 26z" />
<glyph unicode="&#xf8;" horiz-adv-x="1010" />
<glyph unicode="&#xf9;" horiz-adv-x="1059" />
<glyph unicode="&#xfa;" horiz-adv-x="1059" />
<glyph unicode="&#xfb;" horiz-adv-x="1059" />
<glyph unicode="&#xfc;" horiz-adv-x="1059" />
<glyph unicode="&#xfd;" horiz-adv-x="868" />
<glyph unicode="&#xfe;" horiz-adv-x="1010" />
<glyph unicode="&#xff;" horiz-adv-x="868" />
<glyph unicode="&#x2c6;" horiz-adv-x="1024" d="M221 1079l232 355h118l232 -355h-58l-233 216l-233 -216h-58z" />
<glyph unicode="&#x2dc;" horiz-adv-x="1024" d="M234 1132q19 106 68 158.5t129 52.5q46 -1 113 -24q64 -23 112 -23h4q36 0 58 20t36 66h54q-20 -103 -68.5 -154t-126.5 -51h-4q-50 0 -113 23q-66 24 -114 24q-39 0 -60.5 -20.5t-33.5 -71.5h-54z" />
<glyph unicode="&#x2000;" horiz-adv-x="925" />
<glyph unicode="&#x2001;" horiz-adv-x="1851" />
<glyph unicode="&#x2002;" horiz-adv-x="925" />
<glyph unicode="&#x2003;" horiz-adv-x="1851" />
<glyph unicode="&#x2004;" horiz-adv-x="617" />
<glyph unicode="&#x2005;" horiz-adv-x="462" />
<glyph unicode="&#x2006;" horiz-adv-x="308" />
<glyph unicode="&#x2007;" horiz-adv-x="308" />
<glyph unicode="&#x2008;" horiz-adv-x="231" />
<glyph unicode="&#x2009;" horiz-adv-x="370" />
<glyph unicode="&#x200a;" horiz-adv-x="102" />
<glyph unicode="&#x2010;" horiz-adv-x="2000" d="M0 785v36q0 468 425 802q273 177 554 177h36q430 0 747 -350q240 -291 240 -649q0 -481 -401 -802q-272 -201 -606 -201q-453 0 -775 374q-220 281 -220 613zM201 801q0 -426 389 -688q203 -110 382 -110h51q365 0 633 338q141 218 141 436v51q0 300 -251 555 q-239 216 -551 216q-393 0 -661 -354q-133 -217 -133 -444zM527 746v4h315v621l8 8h302l8 -8v-621h311v-4l-472 -421z" />
<glyph unicode="&#x2011;" horiz-adv-x="2000" d="M0 785v36q0 468 425 802q273 177 554 177h36q430 0 747 -350q240 -291 240 -649q0 -481 -401 -802q-272 -201 -606 -201q-453 0 -775 374q-220 281 -220 613zM201 801q0 -426 389 -688q203 -110 382 -110h51q365 0 633 338q141 218 141 436v51q0 300 -251 555 q-239 216 -551 216q-393 0 -661 -354q-133 -217 -133 -444zM527 746v4h315v621l8 8h302l8 -8v-621h311v-4l-472 -421z" />
<glyph unicode="&#x2012;" horiz-adv-x="2000" d="M0 785v36q0 468 425 802q273 177 554 177h36q430 0 747 -350q240 -291 240 -649q0 -481 -401 -802q-272 -201 -606 -201q-453 0 -775 374q-220 281 -220 613zM201 801q0 -426 389 -688q203 -110 382 -110h51q365 0 633 338q141 218 141 436v51q0 300 -251 555 q-239 216 -551 216q-393 0 -661 -354q-133 -217 -133 -444zM527 746v4h315v621l8 8h302l8 -8v-621h311v-4l-472 -421z" />
<glyph unicode="&#x2013;" horiz-adv-x="1108" d="M56 419v120h996v-120h-996z" />
<glyph unicode="&#x2014;" horiz-adv-x="2048" d="M0 419v120h2048v-120h-2048z" />
<glyph unicode="&#x2018;" horiz-adv-x="557" d="M186 1233q0 109 71 226.5t139 117.5v-43q-73 -43 -87 -190q0 -119 129 -161v-42l-119 -125q-44 0 -88.5 65.5t-44.5 151.5z" />
<glyph unicode="&#x2019;" horiz-adv-x="557" d="M119 1410v42l119 125q44 0 88.5 -65.5t44.5 -151.5q0 -109 -71 -226.5t-139 -117.5v43q73 43 87 190q0 119 -129 161z" />
<glyph unicode="&#x201a;" horiz-adv-x="557" d="M119 114v42l119 125q44 0 88.5 -65.5t44.5 -151.5q0 -109 -71 -226.5t-139 -117.5v43q73 43 87 190q0 119 -129 161z" />
<glyph unicode="&#x201c;" horiz-adv-x="910" d="M186 1233q0 109 71 226.5t139 117.5v-43q-73 -43 -87 -190q0 -119 129 -161v-42l-119 -125q-44 0 -88.5 65.5t-44.5 151.5zM539 1233q0 109 71 226.5t139 117.5v-43q-73 -43 -87 -190q0 -119 129 -161v-42l-119 -125q-44 0 -88.5 65.5t-44.5 151.5z" />
<glyph unicode="&#x201d;" horiz-adv-x="910" d="M119 1410v42l119 125q44 0 88.5 -65.5t44.5 -151.5q0 -109 -71 -226.5t-139 -117.5v43q73 43 87 190q0 119 -129 161zM472 1410v42l119 125q44 0 88.5 -65.5t44.5 -151.5q0 -109 -71 -226.5t-139 -117.5v43q73 43 87 190q0 119 -129 161z" />
<glyph unicode="&#x201e;" horiz-adv-x="910" d="M119 114v42l119 125q44 0 88.5 -65.5t44.5 -151.5q0 -109 -71 -226.5t-139 -117.5v43q73 43 87 190q0 119 -129 161zM472 114v42l119 125q44 0 88.5 -65.5t44.5 -151.5q0 -109 -71 -226.5t-139 -117.5v43q73 43 87 190q0 119 -129 161z" />
<glyph unicode="&#x2022;" horiz-adv-x="1024" d="M216 718q0 123 87 209t210 86q122 0 208.5 -86.5t86.5 -208.5t-87.5 -209.5t-209.5 -87.5q-123 0 -209 87t-86 210z" />
<glyph unicode="&#x2026;" horiz-adv-x="2048" d="M129 136q0 15 16 31l82 84q15 14 29 14q13 0 31 -16l80 -86q12 -16 12 -29q0 -15 -14 -31l-80 -88q-20 -20 -29 -20q-16 0 -29 14l-88 101q-10 13 -10 26zM812 136q0 15 16 31l82 84q15 14 29 14q13 0 31 -16l80 -86q12 -16 12 -29q0 -15 -14 -31l-80 -88 q-20 -20 -29 -20q-16 0 -29 14l-88 101q-10 13 -10 26zM1495 136q0 15 16 31l82 84q15 14 29 14q13 0 31 -16l80 -86q12 -16 12 -29q0 -15 -14 -31l-80 -88q-20 -20 -29 -20q-16 0 -29 14l-88 101q-10 13 -10 26z" />
<glyph unicode="&#x202f;" horiz-adv-x="370" />
<glyph unicode="&#x2039;" horiz-adv-x="631" d="M174 479l342 303h14v-37l-205 -266l205 -266v-37h-14z" />
<glyph unicode="&#x203a;" horiz-adv-x="631" d="M101 176v37l205 266l-205 266v37h14l342 -303l-342 -303h-14z" />
<glyph unicode="&#x205f;" horiz-adv-x="462" />
<glyph unicode="&#x20ac;" d="M-44 653l17 60h87v29q0 16 1 31h-71l17 60h58q14 145 76 281q81 178 226 274t298 96q43 0 87 -8q40 -10 82 -29q8 -6 16 -6q20 0 34 45h41l84 -281l-40 -1q-49 134 -138 178q-43 22 -81 32v3q-50 16 -101 16q-17 0 -34 -2q-120 -12 -226 -113.5t-157 -273.5 q-32 -104 -39 -211h706l-17 -60h-692q0 -30 2 -60h674l-17 -60h-652q17 -158 83 -298q74 -157 193 -236q102 -68 216 -69q186 3 256 91q74 91 74 185h48v-143q0 -70 -111 -127q-105 -54 -267 -56q-181 0 -325.5 98t-223.5 274q-62 135 -76 281h-108z" />
<glyph unicode="&#x2122;" horiz-adv-x="1497" />
<glyph unicode="&#x25fc;" horiz-adv-x="500" d="M0 0z" />
</font>
</defs>
</svg>
